{
  "accessors": [
    {
      "bufferView": 0,
      "componentType": 5123,
      "count": 6096,
      "type": "SCALAR"
    },
    {
      "bufferView": 1,
      "componentType": 5126,
      "count": 1299,
      "max": [
        0.14463400840759277,
        0.4789590835571289,
        0.13743270933628082
      ],
      "min": [
        -0.14591170847415924,
        -0.0010799765586853027,
        -0.18947772681713104
      ],
      "type": "VEC3"
    },
    {
      "bufferView": 2,
      "componentType": 5126,
      "count": 1299,
      "type": "VEC3"
    },
    {
      "bufferView": 3,
      "componentType": 5126,
      "count": 1299,
      "type": "VEC2"
    }
  ],
  "asset": {
    "minVersion": "2.0",
    "version": "2.0"
  },
  "bufferViews": [
    {
      "buffer": 0,
      "byteLength": 12192,
      "target": 34963
    },
    {
      "buffer": 0,
      "byteLength": 15588,
      "byteOffset": 12192,
      "target": 34962
    },
    {
      "buffer": 0,
      "byteLength": 15588,
      "byteOffset": 27780,
      "target": 34962
    },
    {
      "buffer": 0,
      "byteLength": 10392,
      "byteOffset": 43368,
      "target": 34962
    }
  ],
  "buffers": [
    {
      "byteLength": 53760,
      "uri": "data:application/gltf-buffer;base64,"
    }
  ],
  "images": [
    {
      "mimeType": "image/png",
      "name": "PlantSansevieria_Normal",
      "uri": "f1569237527b16131ce98cd7bc94c74e.png"
    },
    {
      "mimeType": "image/png",
      "name": "PlantSansevieria_ORM",
      "uri": "d4978425948a18d0f8e31f98232b81c1.png"
    },
    {
      "mimeType": "image/png",
      "name": "PlantSansevieria_Color",
      "uri": "74dfc45d02dc82b12e5f78f746595698.png"
    }
  ],
  "materials": [
    {
      "doubleSided": true,
      "name": "PlantSansevieria_mat",
      "normalTexture": {
        "index": 0
      },
      "pbrMetallicRoughness": {
        "baseColorTexture": {
          "index": 2
        },
        "metallicRoughnessTexture": {
          "index": 1
        }
      }
    }
  ],
  "meshes": [
    {
      "name": "PlantSansevieria_geo",
      "primitives": [
        {
          "attributes": {
            "NORMAL": 2,
            "POSITION": 1,
            "TEXCOORD_0": 3
          },
          "indices": 0,
          "material": 0
        }
      ]
    }
  ],
  "nodes": [
    {
      "extras": {
        "meta_spatial": {
          "entity_id": "PlantSansevieria1"
        }
      },
      "mesh": 0,
      "name": "PlantSansevieria",
      "translation": [
        0,
        -0.09755390882492065,
        0
      ]
    }
  ],
  "scene": 0,
  "scenes": [
    {
      "nodes": [
        0
      ]
    }
  ],
  "textures": [
    {
      "name": "texture1",
      "source": 0
    },
    {
      "name": "texture3",
      "source": 1
    },
    {
      "name": "texture2",
      "source": 2
    }
  ]
}